# xmcd CD database file
#
# Track frame offsets:
#	150
#	23514
#	42394
#	67504
#	91673
#	116768
#	139104
#	180308
#	211137
#	251928
#	291879
#	331809
#
# Disc length: 4795 seconds
#
# Revision: 0
# Processed by: cddbd v1.5.1PL0 Copyright (c) Steve Scherf et al.
# Submitted via: CDex 1.51
#
DISCID=9d12b90c
DTITLE=Dzem - List do R.
DYEAR=1995
DGENRE=Blues
TTITLE0=Dzien, w ktorym peklo niebo
TTITLE1=Wokol sami lunatycy
TTITLE2=Mala Aleja Roz
TTITLE3=Kim jestem - jestem sobie
TTITLE4=Jesiony
TTITLE5=Abym mogl przed siebie isc
TTITLE6=Modlitwa III - Pozwol mi
TTITLE7=Zloty paw
TTITLE8=Obluda
TTITLE9=List do M.
TTITLE10=Zapal swieczke
TTITLE11=Dane zabezpieczajace
EXTD=YEAR: 1995
EXTT0=
EXTT1=
EXTT2=
EXTT3=
EXTT4=
EXTT5=
EXTT6=
EXTT7=
EXTT8=
EXTT9=
EXTT10=
EXTT11=
PLAYORDER=
